<?xml version="1.0" encoding="utf-8"?>
<!-- Generator: Adobe Illustrator 27.7.0, SVG Export Plug-In . SVG Version: 6.00 Build 0)  -->
<svg version="1.1" id="Layer_1" xmlns="http://www.w3.org/2000/svg" xmlns:xlink="http://www.w3.org/1999/xlink" x="0px" y="0px"
	 viewBox="0 0 534 515" style="enable-background:new 0 0 534 515;" xml:space="preserve">
<style type="text/css">
	.st0{fill-rule:evenodd;clip-rule:evenodd;fill:#080341;}
</style>
<path class="st0" d="M357.7,100.8C371.6,59.1,340.5,16,296.5,16c-20.8,0-40.3,10-52.4,27L138.4,191H51.2l-25,25v250l25,25h365.5
	l76.8-153.6c22.8-45.6,13.9-100.7-22.2-136.7C449.1,178.5,419,166,387.5,166h-51.6L357.7,100.8z M176.3,224L284.8,72
	c2.7-3.8,7.1-6,11.7-6c9.9,0,16.8,9.7,13.7,19l-43.7,131h121c18.2,0,35.6,7.2,48.4,20c20.8,20.8,26,52.7,12.8,79l-63,125.9H176.3
	V224z M126.3,441h-50V241h50V441z"/>
</svg>
