<?xml version="1.0" encoding="utf-8"?>
<!-- Generator: Adobe Illustrator 27.7.0, SVG Export Plug-In . SVG Version: 6.00 Build 0)  -->
<svg version="1.1" id="Layer_1" xmlns="http://www.w3.org/2000/svg" xmlns:xlink="http://www.w3.org/1999/xlink" x="0px" y="0px"
	 viewBox="0 0 88.4 122.9" style="enable-background:new 0 0 88.4 122.9;" xml:space="preserve">
<style type="text/css">
	.st0{fill:#FFFFFF;stroke:#FFFFFF;stroke-width:2;stroke-miterlimit:10;}
</style>
<g>
	<path class="st0" d="M42.1,64.6h-39c-1.7,0-3.1-1.4-3.1-3.1s1.4-3.1,3.1-3.1h39L29.4,43.8c-1.1-1.3-1-3.3,0.3-4.4
		c1.3-1.1,3.2-1,4.4,0.3l17.2,19.7c1.1,1.2,1,3,0,4.2L34.1,83.3c-1.1,1.3-3.1,1.4-4.4,0.3s-1.4-3.1-0.3-4.4L42.1,64.6L42.1,64.6z
		 M47.4,122.8c-1.8,0.4-3.5-0.7-4-2.4s0.7-3.6,2.4-4c4.3-1,7.9-1.8,11.3-2.4c16-3.2,24.6-4.9,24.6-27.1V34.3
		c0-20.8-9.1-22.5-24.1-25.3C54,8.3,50.1,7.6,45.8,6.6c-1.8-0.4-2.9-2.2-2.4-4c0.4-1.8,2.2-2.9,4-2.4c4,1,7.9,1.7,11.4,2.4
		C77.3,5.9,88.4,8,88.4,34.3v52.5c0,27.7-10.4,29.8-29.9,33.6C55,121.1,51.2,121.9,47.4,122.8L47.4,122.8z"/>
</g>
</svg>
