<?xml version="1.0" encoding="utf-8"?>
<!-- Generator: Adobe Illustrator 27.7.0, SVG Export Plug-In . SVG Version: 6.00 Build 0)  -->
<svg version="1.1" id="Layer_1" xmlns="http://www.w3.org/2000/svg" xmlns:xlink="http://www.w3.org/1999/xlink" x="0px" y="0px"
	 viewBox="0 0 116.2 122.9" style="enable-background:new 0 0 116.2 122.9;" xml:space="preserve">
<style type="text/css">
	.st0{fill-rule:evenodd;clip-rule:evenodd;fill:#FFFFFF;}
</style>
<g>
	<path class="st0" d="M70.2,112.1H5.9c-5.1-0.4-6.3-4.1-5.8-8.3c2.8-24.9,30.7-17.7,42-27.8l0,0c5.6,16.5,29,17.1,34.3,0
		c1.2,1.1,2.9,2,4.9,2.8c-1.8,1.1-3.5,2.4-5.1,4C68.2,90.7,66.2,102.4,70.2,112.1L70.2,112.1z M110,87c8.2,8.2,8.2,21.5,0,29.8
		s-21.5,8.2-29.8,0S72,95.2,80.2,87S101.8,78.7,110,87L110,87L110,87z M93,90.2h4.3c0.6,0,1.1,0.5,1.1,1.1v7.4h7.4
		c0.6,0,1.1,0.5,1.1,1.1v4.3c0,0.6-0.5,1.1-1.1,1.1h-7.4v7.4c0,0.6-0.5,1.1-1.1,1.1H93c-0.6,0-1.1-0.5-1.1-1.1v-7.4h-7.4
		c-0.6,0-1.1-0.5-1.1-1.1v-4.3c0-0.6,0.5-1.1,1.1-1.1h7.4v-7.4C91.9,90.7,92.4,90.2,93,90.2L93,90.2z M41.9,59.5
		c2.1,3.4,4.3,6.8,7.1,9.4c2.7,2.4,5.9,4.1,10.1,4.1c4.6,0,8-1.7,10.8-4.3c2.9-2.7,5.1-6.3,7.3-10l6-9.8c1.1-2.5,1.5-4.2,1.3-5.2
		c-0.2-0.6-0.8-0.9-1.9-0.9c-0.2,0-0.5,0-0.7,0c-0.3,0-0.5,0-0.8,0c-0.2,0-0.3,0-0.5,0c-0.5,0-1.1,0-1.6-0.1l2-9
		c-15.2,2.4-26.5-8.9-42.5-2.2L39.6,42c-0.6,0-1.2,0-1.8-0.1C28.6,42.2,40.1,56.6,41.9,59.5L41.9,59.5L41.9,59.5z M84.6,40
		c1.5,0.5,2.4,1.4,2.8,2.9c0.4,1.7,0,4-1.5,7.2l0,0c0,0.1-0.1,0.1-0.1,0.2l-6,9.9c-2.3,3.8-4.7,7.7-7.8,10.6
		c-3.3,3.1-7.3,5.1-12.8,5.1c-5.1,0-9-2-12.2-4.9c-3.8-3.5-21.5-25.6-13.6-31c0.4-0.2,0.8-0.5,1.3-0.7c-0.3-4.6-0.5-10.3-0.2-15.1
		c0.1-1.1,0.3-2.3,0.7-3.4c1.3-4.8,4.8-8.7,9-11.4c2.3-1.5,4.9-2.6,7.5-3.3c1.7-0.5-1.4-5.9,0.3-6c8.4-0.9,22,6.8,27.9,13.2
		c2.9,3.2,4.8,7.4,5.2,13L84.6,40L84.6,40L84.6,40L84.6,40L84.6,40z"/>
</g>
</svg>
