<?xml version="1.0" encoding="utf-8"?>
<!-- Generator: Adobe Illustrator 27.7.0, SVG Export Plug-In . SVG Version: 6.00 Build 0)  -->
<svg version="1.1" id="twitter" xmlns="http://www.w3.org/2000/svg" xmlns:xlink="http://www.w3.org/1999/xlink" x="0px" y="0px"
	 viewBox="0 0 24 24" style="enable-background:new 0 0 24 24;" xml:space="preserve">
<path d="M23.7,3.1C22.8,3.6,21.9,3.9,21,4c1-0.8,1.8-1.9,2.1-3.3c-0.9,0.7-2,1.2-3.1,1.5c-1.8-2.4-4.8-2.6-6.8-0.3
	c-1.3,1.5-1.8,3.7-1.4,5.8C7.9,7.4,4.3,5.1,1.9,1.4c-0.4,0.9-0.6,2-0.6,3c0,2,0.8,3.9,2.1,5c-0.8,0-1.5-0.3-2.2-0.7v0.1
	c0,2.9,1.6,5.3,3.9,5.9c-0.4,0.2-0.9,0.2-1.3,0.2c-0.3,0-0.6,0-0.9-0.1c0.6,2.4,2.4,4.1,4.5,4.2c-1.7,1.7-3.8,2.6-5.9,2.6
	c-0.4,0-0.8,0-1.2-0.1c2.2,1.8,4.8,2.7,7.4,2.7c7.5,0.1,13.7-7.4,13.8-16.8c0-0.1,0-0.2,0-0.3c0-0.2,0-0.5,0-0.8
	C22.3,5.3,23.1,4.3,23.7,3.1z"/>
</svg>
