<?xml version="1.0" encoding="utf-8"?>
<!-- Generator: Adobe Illustrator 27.7.0, SVG Export Plug-In . SVG Version: 6.00 Build 0)  -->
<svg version="1.1" id="user" xmlns="http://www.w3.org/2000/svg" xmlns:xlink="http://www.w3.org/1999/xlink" x="0px" y="0px"
	 viewBox="0 0 14.6 14.6" style="enable-background:new 0 0 14.6 14.6;" xml:space="preserve">
<style type="text/css">
	.st0{fill:#FFFFFF;}
</style>
<path class="st0" d="M7.3,0.6c-3.7,0-6.8,3-6.8,6.8c0,1.8,0.7,3.5,2,4.8c1.3,1.3,3,2,4.8,2c3.7,0,6.8-3,6.8-6.8
	C14,3.7,11,0.6,7.3,0.6z M3.2,12.1c0.9-1.2,2.4-2,4-2c0,0,0,0,0.1,0h0c0,0,0,0,0.1,0c1.6,0,3.1,0.8,4,2c-1.1,0.9-2.5,1.5-4,1.5
	C5.8,13.7,4.3,13.1,3.2,12.1z M7.2,9.6C7.2,9.6,7.1,9.6,7.2,9.6c-1.3,0-2.2-1-2.2-2.2c0-1.2,1-2.2,2.3-2.2c0,0,0,0,0,0
	c1.2,0,2.2,1,2.2,2.3c0,0,0,0,0,0C9.5,8.6,8.5,9.6,7.2,9.6C7.3,9.7,7.2,9.6,7.2,9.6z M11.6,11.9c-0.8-1-1.9-1.7-3.1-2.1
	C9.4,9.3,10,8.4,10,7.4c0-1.5-1.2-2.7-2.8-2.7c0,0,0,0,0,0c-1.5,0-2.7,1.2-2.7,2.8c0,0,0,0,0,0c0,1,0.5,1.9,1.4,2.4
	c-1.2,0.3-2.3,1-3.1,2C1.6,10.6,1,9.1,1,7.4c0-3.5,2.8-6.3,6.3-6.3c3.5,0,6.3,2.8,6.3,6.3C13.5,9.1,12.8,10.7,11.6,11.9z"/>
</svg>
