<?xml version="1.0" encoding="utf-8"?>
<!-- Generator: Adobe Illustrator 27.7.0, SVG Export Plug-In . SVG Version: 6.00 Build 0)  -->
<svg version="1.1" id="youtube" xmlns="http://www.w3.org/2000/svg" xmlns:xlink="http://www.w3.org/1999/xlink" x="0px" y="0px"
	 viewBox="0 0 24 17.4" style="enable-background:new 0 0 24 17.4;" xml:space="preserve">
<path d="M23.6,6.3c0.1-1.5-0.3-3.1-1-4.4c-0.5-0.6-1.1-0.9-1.8-1.1C17.9,0.5,15,0.4,12,0.4C9.1,0.4,6.1,0.5,3.2,0.7
	C2.6,0.8,2.1,1.1,1.7,1.5C0.7,2.4,0.6,3.9,0.5,5.2c-0.2,2.3-0.2,4.6,0,7c0,0.7,0.1,1.4,0.3,2.1c0.1,0.5,0.4,1,0.7,1.5
	c0.4,0.4,1,0.7,1.6,0.8C5.4,16.9,7.7,17,10,17c3.7,0.1,6.9,0,10.8-0.3c0.6-0.1,1.2-0.4,1.6-0.8c0.3-0.3,0.5-0.7,0.6-1.1
	c0.4-1.2,0.6-2.4,0.5-3.6C23.6,10.5,23.6,6.9,23.6,6.3z M9.7,11.7V5.5l5.9,3.1C14,9.5,11.8,10.5,9.7,11.7z"/>
</svg>
